<svg width="54" height="35" viewBox="0 0 54 35" fill="none" xmlns="http://www.w3.org/2000/svg">
<path d="M9.19324 30.7392C9.9542 29.5874 12.0019 27.3571 14.5686 27.4558C17.1353 27.5545 19.395 29.6903 20.2888 31.2097" stroke="#2F75E6" stroke-width="0.5" stroke-linecap="round" stroke-linejoin="round"/>
<path d="M9.19324 30.2456C9.19324 30.2456 11.461 33.5741 15.7951 34.5029C18.3865 35.0582 21.2864 34.5029 22.9523 33.0838" stroke="#2F75E6" stroke-width="0.5" stroke-linecap="round" stroke-linejoin="round"/>
<path d="M9.44006 30.6774C17.8312 27.0988 22.6529 36.5468 30.4796 33.0837C37.8219 29.8349 40.1048 24.6926 53 20.6821M28.1968 29.0732C29.6776 27.0988 32.3923 24.165 37.2666 24.165M32.3923 29.937C35.0454 27.7775 42.7579 20.8671 48.8044 22.0394M30.4796 29.5668C32.9476 26.4818 37.2666 22.965 41.4005 23.4968M23.014 28.4562C24.7416 26.6052 25.9922 25.1187 28.6904 25.7357M25.6054 28.7647C27.7032 26.2967 29.4308 24.5075 32.9476 24.9698" stroke="#2F75E6" stroke-width="0.5" stroke-linecap="round" stroke-linejoin="round"/>
<path d="M17.7415 30.7628C25.7408 32.0587 28.6009 33.5335 35.0004 30.4946" stroke="#2F75E6" stroke-width="0.5" stroke-linecap="round" stroke-linejoin="round"/>
<path d="M9.43292 26.1786C9.83647 28.7712 9.09496 30.1333 9.09496 30.1333C9.09496 30.1333 8.04458 29.0501 7.64103 26.4575C7.23748 23.8649 7.80629 21.6237 7.80629 21.6237C7.80629 21.6237 9.02938 23.586 9.43292 26.1786Z" stroke="#2F75E6" stroke-width="0.5" stroke-linecap="round" stroke-linejoin="round"/>
<path d="M2.09779 25.8035C1.78929 25.1865 1.78929 24.3227 1.78929 24.3227C2.65309 24.5695 3.82538 25.1865 4.86933 26.7907M3.55015 26.1701C5.23974 26.6452 5.77791 27.7752 5.77791 27.7752C5.77791 27.7752 4.74886 28.3909 3.05927 27.9159C1.36968 27.4408 0.245436 26.1828 0.245436 26.1828C0.245436 26.1828 1.86056 25.695 3.55015 26.1701Z" stroke="#2F75E6" stroke-width="0.5" stroke-linecap="round" stroke-linejoin="round"/>
<path d="M1.6186 27.4628C0.863803 27.8209 0.370204 28.6277 0.370204 28.6277C2.28289 29.1166 3.93264 28.4836 4.96049 28.0367" stroke="#2F75E6" stroke-width="0.5" stroke-linecap="round" stroke-linejoin="round"/>
<path d="M5.72015 27.7686C6.41942 27.9331 7.69252 28.5409 8.44618 29.5114C9.81328 31.2718 9.19321 32.7752 11.3527 34.6879" stroke="#2F75E6" stroke-width="0.5" stroke-linecap="round" stroke-linejoin="round"/>
<path d="M16.1653 30.3075C15.61 31.1713 14.8696 31.3564 13.8824 31.3564C12.8952 31.3564 11.6894 30.8951 11.4144 30.1841" stroke="#2F75E6" stroke-width="0.5" stroke-linecap="round" stroke-linejoin="round"/>
<path d="M13.8536 29.8691C13.8536 30.2522 13.8983 31.1204 14.8814 31.2545" stroke="#2F75E6" stroke-width="0.5" stroke-linecap="round" stroke-linejoin="round"/>
<path d="M16.7328 22.5472C17.6005 20.903 18.8358 16.2397 16.7328 14.327M16.7328 14.327C16.7328 16.1163 16.2887 18.029 15.6788 21.0661M16.7328 14.327C16.7328 12.9079 16.4825 11.9344 15.9226 10.9952M14.1909 19.7566C15.1136 14.6262 17.2023 8.77403 15.1136 6.39778M18.8358 21.1966C19.4846 22.0868 19.4186 23.2125 19.3224 24.0057M17.7588 24.3037C18.7675 22.0688 19.3224 19.7566 17.9974 17.7205" stroke="#2F75E6" stroke-width="0.5" stroke-linecap="round" stroke-linejoin="round"/>
<path d="M13.3271 27.5309C12.2165 26.1118 10.9417 23.5204 11.7846 20.0035C13.3271 13.5676 14.7462 9.08266 15.1164 3.22119" stroke="#2F75E6" stroke-width="0.5" stroke-linecap="round" stroke-linejoin="round"/>
<path d="M12.0931 18.7695C12.0931 21.6694 12.9939 25.0876 14.8696 27.4075" stroke="#2F75E6" stroke-width="0.5" stroke-linecap="round" stroke-linejoin="round"/>
<path d="M17.0291 28.0861C18.2837 25.104 22.5204 19.1397 26.5926 17.4121C26.8394 19.1397 26.9011 22.8417 25.7288 25.9267" stroke="#2F75E6" stroke-width="0.5" stroke-linecap="round" stroke-linejoin="round"/>
<path d="M22.1502 20.7439C22.7672 19.7567 24.8287 15.4994 26.0373 11.6123C27.2458 7.72526 27.3329 2.97439 27.3329 1" stroke="#2F75E6" stroke-width="0.5" stroke-linecap="round" stroke-linejoin="round"/>
<path d="M26.7159 22.2249C29.8832 18.6052 37.8959 11.23 45.8428 8.95947" stroke="#2F75E6" stroke-width="0.5" stroke-linecap="round" stroke-linejoin="round"/>
<path d="M26.1606 11.1807C25.9138 12.5998 26.0372 14.7361 27.4563 15.623C29.4307 16.857 32.5774 16.0549 36.4645 13.6487" stroke="#2F75E6" stroke-width="0.5" stroke-linecap="round" stroke-linejoin="round"/>
<path d="M16.0769 30.3128C16.0243 30.6402 15.6854 30.8581 15.3199 30.7994C14.9543 30.7407 14.7006 30.4276 14.7532 30.1001C14.8058 29.7727 15.1031 29.9401 15.4686 29.9988C15.8341 30.0575 16.1295 29.9853 16.0769 30.3128Z" fill="#F2C39C"/>
</svg>
